<svg xmlns="http://www.w3.org/2000/svg" viewBox="0 0 90 170">
  <defs>
    <linearGradient id="ad-body" x1="0" x2="1">
      <stop offset="0" stop-color="#0a0705"></stop>
      <stop offset="0.25" stop-color="#1a0d0a" stop-opacity="0.9"></stop>
      <stop offset="0.5" stop-color="#2a1510" stop-opacity="0.95"></stop>
      <stop offset="0.75" stop-color="#1a0d0a" stop-opacity="0.9"></stop>
      <stop offset="1" stop-color="#0a0705"></stop>
    </linearGradient>
    <linearGradient id="ad-facet" x1="0" x2="0" y1="0" y2="1">
      <stop offset="0" stop-color="#f5c96b" stop-opacity="0.3"></stop>
      <stop offset="1" stop-color="#f5c96b" stop-opacity="0"></stop>
    </linearGradient>
    <linearGradient id="ad-hi-l" x1="0" y1="0" x2="1" y2="0">
      <stop offset="0" stop-color="#fff" stop-opacity="0.45"></stop>
      <stop offset="1" stop-color="#fff" stop-opacity="0"></stop>
    </linearGradient>
    <linearGradient id="ad-hi-r" x1="1" y1="0" x2="0" y2="0">
      <stop offset="0" stop-color="#fff" stop-opacity="0.25"></stop>
      <stop offset="1" stop-color="#fff" stop-opacity="0"></stop>
    </linearGradient>
  </defs>
  
  <polygon points="37,4 53,4 58,14 55,26 50,30 40,30 35,26 32,14" fill="#3a2818" stroke="#d49a3a" stroke-width="0.5"></polygon>
  <polygon points="37,4 45,8 53,4 50,18 45,22 40,18" fill="#d49a3a" opacity="0.5"></polygon>
  <polygon points="37,4 45,8 41,14 38,10" fill="#fff" opacity="0.5"></polygon>
  <polygon points="40,22 50,22 48,30 42,30" fill="#1a120a"></polygon>
  
  <circle cx="45" cy="38" r="8" fill="#4a130d" stroke="#7d241a" stroke-width="0.6"></circle>
  <circle cx="45" cy="38" r="6" fill="none" stroke="#7d241a" stroke-width="0.3" stroke-dasharray="0.8 1.2"></circle>
  <text x="45" y="42" text-anchor="middle" font-family="&#39;Cinzel Decorative&#39;, serif" font-size="9" font-weight="900" fill="#f5c96b">S</text>
  
  <path d="M34 30 L56 30 L58 40 Q68 48 70 64 L70 154 Q70 162 62 162 L28 162 Q20 162 20 154 L20 64 Q22 48 32 40 Z" fill="url(#ad-body)" stroke="#d49a3a" stroke-width="0.7"></path>
  
  <line x1="32" y1="56" x2="32" y2="158" stroke="#d49a3a" stroke-width="0.3" opacity="0.5"></line>
  <line x1="45" y1="50" x2="45" y2="160" stroke="#f5c96b" stroke-width="0.3" opacity="0.55"></line>
  <line x1="58" y1="56" x2="58" y2="158" stroke="#d49a3a" stroke-width="0.3" opacity="0.5"></line>
  <path d="M20 68 L70 68" fill="none" stroke="#d49a3a" stroke-width="0.3" opacity="0.4"></path>
  
  <path d="M24 70 L31 68 L31 150 L24 152 Z" fill="url(#ad-hi-l)" opacity="0.9"></path>
  <path d="M46 68 L57 70 L57 155 L46 153 Z" fill="url(#ad-hi-r)" opacity="0.8"></path>
  <path d="M33 56 Q30 60 28 68 L32 66 Q34 60 35 57 Z" fill="#fff" opacity="0.3"></path>
  
  <rect x="22" y="72" width="46" height="84" fill="url(#ad-facet)" opacity="0.6"></rect>
  
  <path d="M45 46 Q50 54 60 60" fill="none" stroke="#d8c89c" stroke-width="0.5" opacity="0.8"></path>
  <circle cx="62" cy="62" r="5.5" fill="#4a2818" stroke="#d49a3a" stroke-width="0.5"></circle>
  <circle cx="62" cy="62" r="4" fill="none" stroke="#d49a3a" stroke-width="0.3"></circle>
  <path d="M62 58 L63 61 L66 61 L63.5 63 L64.5 66 L62 64 L59.5 66 L60.5 63 L58 61 L61 61 Z" fill="#f5c96b"></path>
  
  <g transform="rotate(-10 45 128)">
    <path d="M22 114 L68 110 L70 138 L24 142 Z" fill="#d8c89c" stroke="#6a5028" stroke-width="0.4"></path>
    <path d="M24 117 L68 113" stroke="#6a5028" stroke-width="0.2" opacity="0.5"></path>
    <path d="M24 137 L68 133" stroke="#6a5028" stroke-width="0.2" opacity="0.5"></path>
    <text x="46" y="126" text-anchor="middle" font-family="&#39;Cinzel Decorative&#39;, serif" font-size="6" font-weight="900" fill="#1a120a" textLength="32" lengthAdjust="spacingAndGlyphs">A KING&#39;S</text>
    <text x="46" y="135" text-anchor="middle" font-family="&#39;Cinzel Decorative&#39;, serif" font-size="6" font-weight="900" fill="#1a120a" textLength="28" lengthAdjust="spacingAndGlyphs">RANSOM</text>
  </g>
</svg>