<svg xmlns="http://www.w3.org/2000/svg" viewBox="0 -8 60 118">
  <defs>
    <radialGradient id="ph-cour-liq" cx="0.5" cy="0.55" r="0.6">
      <stop offset="0" stop-color="#ffd080"></stop>
      <stop offset="0.25" stop-color="#f5a040"></stop>
      <stop offset="0.65" stop-color="#c4602a"></stop>
      <stop offset="1" stop-color="#5a1f10"></stop>
    </radialGradient>
    <radialGradient id="ph-cour-glow" cx="0.5" cy="0.55" r="0.5">
      <stop offset="0" stop-color="#ffe0a0" stop-opacity="0.9"></stop>
      <stop offset="1" stop-color="#ffe0a0" stop-opacity="0"></stop>
    </radialGradient>
  </defs>
  
  <line x1="33" y1="8" x2="37" y2="-2" stroke="#c19440" stroke-width="1.2" stroke-linecap="round"></line>
  <ellipse cx="37" cy="-0.5" rx="1.6" ry="2.2" fill="#1a0a06"></ellipse>
  <ellipse cx="37.3" cy="-1.3" rx="1.2" ry="1.6" fill="#9d2818"></ellipse>
  <ellipse cx="37.5" cy="-1.6" rx="0.6" ry="0.9" fill="#d94828">
    
  </ellipse>
  
  <rect x="25" y="8" width="10" height="12" fill="#5a3a1a" rx="0.5"></rect>
  <ellipse cx="30" cy="8" rx="5" ry="1.5" fill="#4a2a12"></ellipse>
  
  <path d="M26 22 L26 28 Q26 32 28 32 L28 96 Q28 100 30 100 Q32 100 32 96 L32 32 Q34 32 34 28 L34 22 Z" fill="url(#ph-cour-liq)"></path>
  
  <ellipse cx="30" cy="64" rx="3" ry="18" fill="url(#ph-cour-glow)"></ellipse>
  
  <path d="M26 22 L26 28 Q26 32 28 32 L28 96 Q28 100 30 100 Q32 100 32 96 L32 32 Q34 32 34 28 L34 22 Z" fill="none" stroke="#d49a3a" stroke-width="0.7"></path>
  <line x1="28.5" y1="36" x2="28.5" y2="94" stroke="#fff" stroke-width="0.5" opacity="0.3"></line>
</svg>